# xmcd CD database file
#
# Track frame offsets:
#	150
#	21273
#	50782
#	72083
#	90895
#	112367
#	126283
#	145158
#	164436
#	179764
#	216702
#
# Disc length: 2942 seconds
#
# Revision: 1
# Processed by: cddbd v1.5.2PL0 Copyright (c) Steve Scherf et al.
# Submitted via: CDex 1.70beta2
#
DISCID=af0b7c0b
DTITLE=Tupac and His Friends - night time cafe no.5 girl from ipanema
DYEAR=2003
DGENRE=Jazz
TTITLE0=wankara
TTITLE1=new sensation
TTITLE2=sud-america
TTITLE3=latin fusion with quena,flute and congas
TTITLE4=orgullo aymara
TTITLE5=mambo a lo tupac
TTITLE6=guantanamera
TTITLE7=tico tico
TTITLE8=girl from ipanema
TTITLE9=descarga
TTITLE10=sweet dreams baby
EXTD=YEAR: 2003
EXTT0=
EXTT1=
EXTT2=
EXTT3=
EXTT4=
EXTT5=
EXTT6=
EXTT7=
EXTT8=
EXTT9=
EXTT10=
PLAYORDER=
